<?xml version="1.0" encoding="UTF-8"?>
<svg width="164px" height="125px" viewBox="0 0 164 125" version="1.1" xmlns="http://www.w3.org/2000/svg" xmlns:xlink="http://www.w3.org/1999/xlink">
    <!-- Generator: Sketch 49.3 (51167) - http://www.bohemiancoding.com/sketch -->
    <title>makeschool</title>
    <desc>Created with Sketch.</desc>
    <defs></defs>
    <g id="AppIcon" stroke="none" stroke-width="1" fill="none" fill-rule="evenodd">
        <g id="Artboard-2" transform="translate(-355.000000, -302.000000)" fill-rule="nonzero">
            <g id="makeschool" transform="translate(355.500000, 302.185644)">
                <g id="Shape">
                    <path d="M125.1,2 C123.8,0.7 122.1,0 120.3,0 L42.6,0 C40.8,0 39.1,0.7 37.8,2 L2,37.8 C-0.6,40.4 -0.6,44.7 2,47.3 L76.7,122 C78,123.3 79.7,124 81.5,124 C83.3,124 85,123.3 86.3,122 L161,47.3 C162.3,46 163,44.3 163,42.5 C163,40.7 162.3,39 161,37.7 L125.1,2 Z" fill="#FFFFFF"></path>
                    <path d="M81.5,58.1 L81.5,113.3 C81,113.3 80.5,113.1 80.2,112.8 L53.8,86.3 C53.7,86.2 53.6,86.1 53.6,86 C53.6,86 53.6,86 53.6,85.9 L81.5,58.1 Z" fill="#48B2E8"></path>
                    <path d="M81.5,58.1 L53.5,86 C53.5,85.9 53.4,85.8 53.4,85.7 L53.4,32.5 C53.4,31.6 54.5,31.2 55.1,31.8 L81.5,58.1 Z" fill="#019CDB"></path>
                    <path d="M109.4,86 C109.3,86.2 109.3,86.3 109.2,86.4 L82.8,112.8 L82.7,112.9 C82.4,113.2 81.9,113.4 81.5,113.4 L81.5,58.1 L109.4,86 Z" fill="#288DC1"></path>
                    <path d="M107.7,10.9 L82.2,36.5 C82,36.7 81.7,36.8 81.5,36.8 L81.5,9.2 L107,9.2 C107.9,9.2 108.4,10.3 107.7,10.9 Z" fill="#019CDB"></path>
                    <path d="M81.5,9.2 L81.5,36.8 C81.2,36.8 81,36.7 80.8,36.5 L55.1,10.9 C54.5,10.3 55,9.2 55.8,9.2 L81.5,9.2 Z" fill="#48B2E8"></path>
                    <path d="M38.6,16.7 L38.6,68.4 C38.6,69.3 37.5,69.8 36.9,69.1 L11.7,43.9 L11.6,43.8 C11.3,43.5 11.1,43.1 11.1,42.6 C11.1,42.2 11.3,41.8 11.5,41.4 L11.7,41.2 L36.9,16 C37.5,15.4 38.6,15.8 38.6,16.7 Z" fill="#48B2E8"></path>
                    <path d="M124.4,16.7 L124.4,68.4 C124.4,69.3 125.5,69.8 126.1,69.1 L151.3,43.8 L151.4,43.7 C151.7,43.4 151.9,43 151.9,42.5 C151.9,42.1 151.7,41.7 151.5,41.3 L151.3,41.1 L126.2,16 C125.5,15.4 124.4,15.8 124.4,16.7 Z" fill="#288DC1"></path>
                    <path d="M109.4,32.5 L109.4,85.6 C109.4,85.7 109.4,85.8 109.3,85.9 L81.5,58.1 L107.8,31.8 C108.4,31.1 109.4,31.6 109.4,32.5 Z" fill="#48B2E8"></path>
                </g>
            </g>
        </g>
    </g>
</svg>